<?xml version="1.0" encoding="UTF-8" standalone="no"?>
<svg
   xmlns:dc="http://purl.org/dc/elements/1.1/"
   xmlns:cc="http://creativecommons.org/ns#"
   xmlns:rdf="http://www.w3.org/1999/02/22-rdf-syntax-ns#"
   xmlns:svg="http://www.w3.org/2000/svg"
   xmlns="http://www.w3.org/2000/svg"
   xmlns:sodipodi="http://sodipodi.sourceforge.net/DTD/sodipodi-0.dtd"
   xmlns:inkscape="http://www.inkscape.org/namespaces/inkscape"
   version="1.1"
   id="svg2"
   xml:space="preserve"
   width="337.38019"
   height="100.00001"
   viewBox="0 0 337.38018 100.00001"
   sodipodi:docname="z_square_text.svg"
   inkscape:version="1.0.1 (3bc2e813f5, 2020-09-07)"
   inkscape:export-filename="\\wsl$\Ubuntu-20.04\home\nimbus\Sandbox\zeeq_engine\frontend\public\logos\z_square_text2.png"
   inkscape:export-xdpi="95.891823"
   inkscape:export-ydpi="95.891823"><metadata
     id="metadata8"><rdf:RDF><cc:Work
         rdf:about=""><dc:format>image/svg+xml</dc:format><dc:type
           rdf:resource="http://purl.org/dc/dcmitype/StillImage" /><dc:title /></cc:Work></rdf:RDF></metadata><defs
     id="defs6"><clipPath
       clipPathUnits="userSpaceOnUse"
       id="clipPath20"><path
         d="M 10,4585 V 0 l 29985,5 5,9165 H 10 Z m 8660,0 V 340 H 340 v 8490 h 8330 z m 3482,1045.33 c 109.4,-75 101,-243.41 -15,-299.53 -41.5,-20.06 -57,-20.8 -437,-20.8 -379,0 -395.6,0.8 -437,20.99 -59.4,29 -86.1,70.01 -91,140.01 -6.4,89 35.9,154.4 116,179.53 14.8,4.65 207.5,7.57 427.5,6.47 l 400.5,-2 z m 1012,0.67 c 66.3,-41.11 95.8,-150 60.7,-224 -23.7,-50 -1771.5,-1793.01 -1816.7,-1811.74 -74,-30.65 -164.7,-6.83 -208.4,54.74 -24.9,34.99 -37.1,110 -25.7,157 9.4,38.44 1775.1,1807.35 1831.1,1834.38 48,23.17 111.6,19.02 159,-10.38 z m 1354,13.4 c 50,-21.08 71.6,-41.71 93.6,-89.4 17.4,-37.86 18.4,-88 18.4,-938 0,-988 3.3,-936.12 -63,-994.23 -86.8,-76.09 -219.7,-45.77 -268.4,61.23 -17.7,39.07 -18.6,83 -18.1,931 0.5,941 0.3,935.73 45.8,987 24,27 90.7,57.38 126.7,57.73 15.1,0.15 45,-6.9 65,-15.33 z m 1431,5.95 c 69.3,-19.67 121,-90.35 121,-165.35 0,-75 -51.7,-145.68 -121,-165.35 -19.6,-5.56 -197,-9.65 -419,-9.65 -357,0 -388.1,1.39 -427,19.17 -128,58.44 -128.6,246.45 -1,309.56 41.7,20.61 55,21.27 428,21.27 222,0 399.4,-4.09 419,-9.65 z m 1399,-6.06 c 50,-20.99 71.6,-41.6 93.6,-89.29 17.4,-37.86 18.4,-88 18.4,-935 0,-853 -0.9,-896.92 -18.7,-936 -34.2,-75.24 -113.3,-115.37 -196.3,-99.61 -48,9.12 -111.7,67.59 -124.9,114.61 -6.5,23.07 -10.1,355 -10.1,924 0,777 1.9,892.62 15.6,925 21.1,50 41.7,71.54 89.4,93.36 49,22.41 84.7,23.2 133,2.93 z m 1447,-2.76 c 117,-54.04 141.9,-185.77 52.7,-278.53 -17.8,-18.59 -47.2,-37.37 -67.2,-43 -20.4,-5.76 -199,-10 -421,-10 -380,0 -386.1,0.32 -430.5,22.75 -130,65.69 -127,248.57 5,308.6 37.6,17.12 73,18.65 431,18.65 358,0 393.3,-1.52 430,-18.47 z m 5830,-0.27 c 46,-21.55 79.1,-54.74 94.1,-94.26 14.8,-38.92 14.7,-1815 0,-1854 -36.7,-97 -154.3,-140.9 -243.1,-90.69 -52.7,29.79 -82.9,76.69 -90.7,140.69 -3.5,28.61 -4.9,443.5 -3.3,922.5 l 3,870.5 26.4,40 c 29.7,44.86 96.6,84 143.6,84 16.5,0 48,-8.43 70,-18.74 z m -4011,-80.75 c 83,-40.43 119,-146.12 77.5,-227.51 -22.8,-44.8 -48.5,-66.07 -128.5,-106.34 -118.6,-59.72 -233.1,-182.66 -299.5,-321.66 -155.1,-324.58 -14.5,-728.26 314.5,-902.98 45,-23.9 90.5,-56.35 102.4,-73.02 41.3,-58 38,-155.79 -7,-209 -62.4,-73.76 -143.4,-81.63 -255.4,-24.84 -436.7,221.42 -659,729.84 -527.3,1205.84 75.5,273 290.6,531.03 541.3,649.38 74,34.93 125.2,37.78 182,10.13 z m 753,-21.1 c 193,-98.98 357,-266.41 457,-466.41 79.2,-158.39 111.1,-315 102.4,-503 -8.6,-188 -51.6,-333.47 -141.6,-479 l -45.8,-74 85.2,-87 c 88.2,-90 105.8,-119.17 105.8,-175 0,-92 -80.6,-175 -170,-175 -53.5,0 -101,28.26 -185,110.1 l -82,79.9 -77,-46 c -42,-25.09 -97.5,-52.14 -122,-59.52 -112.1,-33.69 -214.1,37.52 -221.3,154.52 -4.9,80.8 23.3,125.85 106.3,169.71 l 63,33.29 -125,127 c -100.4,102 -127.3,135.46 -136.7,170 -21.8,80 16.4,163.05 91.7,199.61 93.4,45.31 138,25.48 295,-131.01 l 122,-121.6 29.9,64 c 45.8,98.25 61.1,171 61.1,291 0,196 -62.2,343.56 -204,483.85 -57.2,56.58 -106,93.62 -166,125.95 -90,48.5 -124.8,85.7 -136,145.2 -9.7,52 3.9,101.35 39,141 67,75.65 138,81.92 254,22.41 z m 5126,26.99 c 64.9,-27.2 114.6,-115.4 103.5,-183.4 -10.4,-63.03 -41.5,-97.61 -134.5,-149.48 -61,-34.02 -110.8,-72.43 -166.7,-128.52 -138.6,-139.14 -195.3,-265 -203.1,-451 -7.8,-185 37.3,-327.5 146.8,-464 66.4,-82.86 133,-137.56 233,-191.47 89,-47.98 118.2,-84.87 125.6,-158.53 8,-81 -40.6,-151.05 -121.6,-175.14 -44.1,-13.11 -56,-13.14 -101,-0.25 -63.9,18.31 -209,108.48 -292,181.45 -193.9,170.47 -324.5,444.94 -339.6,713.94 -23.4,415 210.4,816.25 576.6,989.65 70,33.15 121.9,38.17 173,16.75 z m 716,-4.89 c 26.8,-10.14 87,-43.31 133,-73.34 446.4,-291.39 602.4,-858.17 366.7,-1332.17 -97.9,-196.87 -265.7,-363.86 -467.7,-465.51 -103,-51.83 -184.1,-41.72 -244.8,30.51 -32.2,38.24 -39.6,67 -33.8,131 6.2,68.6 29.6,95.73 127.6,148 123,65.6 250.6,194.44 308.1,311 56.3,114.23 74.9,205 69.3,339 -3.5,83 -10.7,123.02 -34.3,191 -57.7,166 -179.8,308.24 -333.1,388.2 -99,51.63 -131.9,91.17 -137.9,165.8 -5.7,71 28.2,132.67 89.9,163.5 52.8,26.42 93,27.19 157,3.01 z M 15715,4756 c 95,-72.5 88,-214 -14,-283 -33.2,-22.49 -40,-23 -303,-23 -294,0 -302.2,1.4 -351.5,60 -55,65.41 -54.6,155 0.9,221 47.8,56.9 60.6,58.91 358.6,56.34 l 271,-2.34 z m 2801.5,17.5 c 18.7,-8.96 46.8,-32.5 61.5,-51.5 23,-29.78 27,-45 27,-102 0,-58 -3.8,-71.97 -28.4,-104 -49.8,-64.91 -55.6,-66 -352.6,-66 -250,0 -268.2,1.25 -303,20.74 -119.1,66.77 -117,225.28 4,300.59 27.3,17 53.5,18.67 293.5,18.67 224,0 268.7,-2.47 298,-16.5 z M 13115,3919.23 c 81.5,-22.2 129.2,-91.23 123.1,-178.23 -4.8,-70 -34.3,-115.54 -92.1,-142.13 -37.8,-17.39 -72,-18.87 -436,-18.87 -364,0 -398.2,1.48 -436,18.87 -57.8,26.59 -87.3,72.13 -92.2,142.13 -5.8,84 41.9,155.67 118.2,177.29 49.4,14.01 764,14.83 815,0.94 z m 2827,0.16 c 48,-13.37 97,-54.68 114.4,-96.39 34.9,-84 -0.9,-184.2 -79.4,-222.19 -41.4,-20.05 -57.5,-20.81 -440.5,-20.81 -347,0 -401.6,2.06 -429.5,16.24 -70.6,35.86 -100,82.76 -100,159.76 0,79 46.1,141.04 122,164.15 40,12.17 769,11.49 813,-0.76 z m 2865,-11.77 c 73.4,-39.85 109.8,-131.62 83.5,-210.62 -14.9,-45 -79.4,-103.88 -122.5,-111.88 -18.2,-3.37 -211,-4.77 -429,-3.12 l -396,3 -38,29.18 c -37,28.41 -74.4,93.82 -74.7,130.82 -0.7,72 58,155.49 122.7,174.56 18.6,5.47 198,8.6 427,7.44 355,-1.8 398.2,-3.76 427,-19.38 z m 4400,-8.59 c 70.9,-43.69 99.3,-135.03 65.6,-211.03 -37.2,-83.87 -130.6,-126.68 -215.6,-98.81 -52.7,17.29 -104,78.81 -112.4,134.81 -22.3,149 134.7,253.74 262.4,175.03 z"
         clip-rule="evenodd"
         id="path18" /></clipPath><clipPath
       clipPathUnits="userSpaceOnUse"
       id="clipPath26"><path
         d="M 0,0 H 30000 V 9170 H 0 Z"
         id="path24" /></clipPath><clipPath
       clipPathUnits="userSpaceOnUse"
       id="clipPath36"><path
         d="m 2043,7155.34 c -87,-18.88 -157.61,-59.22 -228.14,-130.34 -93.36,-94.15 -133.97,-194 -134.23,-330 -0.38,-200 122.28,-375.89 311.37,-446.48 l 63,-23.52 1030,-3 c 698,-2.03 1052.56,0.54 1100,7.97 98,15.35 184.33,58.81 259,130.36 190,182.09 193.13,480.54 7,666.67 -70.78,70.78 -139,109.06 -228,127.95 -97,20.58 -2085.29,20.94 -2180,0.39"
         clip-rule="evenodd"
         id="path34" /></clipPath><clipPath
       clipPathUnits="userSpaceOnUse"
       id="clipPath42"><path
         d="M 0,0 H 30000 V 9170 H 0 Z"
         id="path40" /></clipPath><clipPath
       clipPathUnits="userSpaceOnUse"
       id="clipPath52"><path
         d="m 6780,7158.79 c -24.6,-4.8 -79,-25.11 -120,-44.79 -73.53,-35.29 -122,-82.97 -2468,-2427.5 C 2703,3198.43 1783.98,2272.71 1759.26,2236 1632.61,2048 1658.53,1796.97 1821,1637.97 c 141.76,-138.73 357,-173.4 539,-86.8 66.85,31.81 207,170.66 4491,4449.38 424,423.47 444.39,447.64 475.33,563.45 18.32,68.56 17.55,188 -1.68,262 -59.56,229.13 -305.65,379.5 -544.65,332.79"
         clip-rule="evenodd"
         id="path50" /></clipPath><clipPath
       clipPathUnits="userSpaceOnUse"
       id="clipPath58"><path
         d="M 0,0 H 30000 V 9170 H 0 Z"
         id="path56" /></clipPath><clipPath
       clipPathUnits="userSpaceOnUse"
       id="clipPath68"><path
         d="m 4799,2436.07 c -83,-17.69 -162.69,-62.76 -230,-130.07 -106.85,-106.85 -153.89,-252 -130.6,-403 15.28,-99 51.56,-171.92 123.91,-249 70.88,-75.52 168.69,-127.9 267.69,-143.36 90,-14.05 2033.33,-13.99 2120,0.07 179,29.04 339.31,177.06 379.37,350.29 25.21,109 4.86,260.9 -46.74,349 -37.49,64 -130.21,153.3 -191.63,184.54 -109.99,55.96 -99,55.47 -1211,54.42 -755,-0.71 -1039.75,-4.1 -1081,-12.89"
         clip-rule="evenodd"
         id="path66" /></clipPath><clipPath
       clipPathUnits="userSpaceOnUse"
       id="clipPath74"><path
         d="M 0,0 H 30000 V 9170 H 0 Z"
         id="path72" /></clipPath><clipPath
       clipPathUnits="userSpaceOnUse"
       id="clipPath36-0"><path
         d="m 2043,7155.34 c -87,-18.88 -157.61,-59.22 -228.14,-130.34 -93.36,-94.15 -133.97,-194 -134.23,-330 -0.38,-200 122.28,-375.89 311.37,-446.48 l 63,-23.52 1030,-3 c 698,-2.03 1052.56,0.54 1100,7.97 98,15.35 184.33,58.81 259,130.36 190,182.09 193.13,480.54 7,666.67 -70.78,70.78 -139,109.06 -228,127.95 -97,20.58 -2085.29,20.94 -2180,0.39"
         clip-rule="evenodd"
         id="path34-8" /></clipPath><clipPath
       clipPathUnits="userSpaceOnUse"
       id="clipPath42-6"><path
         d="M 0,0 H 30000 V 9170 H 0 Z"
         id="path40-1" /></clipPath><clipPath
       clipPathUnits="userSpaceOnUse"
       id="clipPath52-8"><path
         d="m 6780,7158.79 c -24.6,-4.8 -79,-25.11 -120,-44.79 -73.53,-35.29 -122,-82.97 -2468,-2427.5 C 2703,3198.43 1783.98,2272.71 1759.26,2236 1632.61,2048 1658.53,1796.97 1821,1637.97 c 141.76,-138.73 357,-173.4 539,-86.8 66.85,31.81 207,170.66 4491,4449.38 424,423.47 444.39,447.64 475.33,563.45 18.32,68.56 17.55,188 -1.68,262 -59.56,229.13 -305.65,379.5 -544.65,332.79"
         clip-rule="evenodd"
         id="path50-0" /></clipPath><clipPath
       clipPathUnits="userSpaceOnUse"
       id="clipPath58-8"><path
         d="M 0,0 H 30000 V 9170 H 0 Z"
         id="path56-2" /></clipPath><clipPath
       clipPathUnits="userSpaceOnUse"
       id="clipPath68-1"><path
         d="m 4799,2436.07 c -83,-17.69 -162.69,-62.76 -230,-130.07 -106.85,-106.85 -153.89,-252 -130.6,-403 15.28,-99 51.56,-171.92 123.91,-249 70.88,-75.52 168.69,-127.9 267.69,-143.36 90,-14.05 2033.33,-13.99 2120,0.07 179,29.04 339.31,177.06 379.37,350.29 25.21,109 4.86,260.9 -46.74,349 -37.49,64 -130.21,153.3 -191.63,184.54 -109.99,55.96 -99,55.47 -1211,54.42 -755,-0.71 -1039.75,-4.1 -1081,-12.89"
         clip-rule="evenodd"
         id="path66-8" /></clipPath><clipPath
       clipPathUnits="userSpaceOnUse"
       id="clipPath74-5"><path
         d="M 0,0 H 30000 V 9170 H 0 Z"
         id="path72-9" /></clipPath></defs><sodipodi:namedview
     pagecolor="#ffffff"
     bordercolor="#666666"
     borderopacity="1"
     objecttolerance="10"
     gridtolerance="10"
     guidetolerance="10"
     inkscape:pageopacity="0"
     inkscape:pageshadow="2"
     inkscape:window-width="1920"
     inkscape:window-height="1017"
     id="namedview4"
     showgrid="false"
     showborder="false"
     inkscape:snap-bbox="true"
     inkscape:object-paths="true"
     inkscape:zoom="3.4571395"
     inkscape:cx="195.48962"
     inkscape:cy="42.228685"
     inkscape:window-x="-8"
     inkscape:window-y="-8"
     inkscape:window-maximized="1"
     inkscape:current-layer="g10"
     inkscape:document-rotation="0" /><g
     id="g10"
     inkscape:groupmode="layer"
     inkscape:label="ink_ext_XXXXXX"
     transform="matrix(1.3333333,0,0,-1.3333333,-3083.1057,1214.5487)"><g
       id="g879"
       transform="matrix(0.08333334,0,0,0.08333334,2125.3778,835.16032)"
       inkscape:export-xdpi="71.999992"
       inkscape:export-ydpi="71.999992"><rect
         style="fill:#ff5e0e;fill-opacity:1;stroke-width:0.507085"
         id="rect860"
         width="900"
         height="900"
         x="2243.4182"
         y="-909.01489"
         transform="scale(1,-1)"
         ry="124.69878" /></g><g
       id="g12"
       transform="matrix(0.00406118,0,0,0.00434054,2289.7806,859.92076)"
       inkscape:export-xdpi="71.999992"
       inkscape:export-ydpi="71.999992"
       style="fill:#f9f9f9"><g
         id="g137"
         transform="matrix(1.9573697,0,0,1.8283231,6031.7707,-4419.0013)"
         style="fill:#f9f9f9"><g
           id="g30"
           style="fill:#f9f9f9"><g
             id="g32"
             clip-path="url(#clipPath36-0)"
             style="fill:#f9f9f9"><g
               id="g38"
               clip-path="url(#clipPath42-6)"
               style="fill:#f9f9f9"><path
                 d="M 1630.63,6171.33 H 4638.58 V 7220.57 H 1630.63 Z"
                 style="fill:#f9f9f9;fill-opacity:1;fill-rule:nonzero;stroke:none"
                 id="path44" /></g></g></g><g
           id="g46"
           style="fill:#f9f9f9"><g
             id="g48"
             clip-path="url(#clipPath52-8)"
             style="fill:#f9f9f9"><g
               id="g54"
               clip-path="url(#clipPath58-8)"
               style="fill:#f9f9f9"><path
                 d="M 1629.23,1453.97 H 7389.59 V 7217.3 H 1629.23 Z"
                 style="fill:#f9f9f9;fill-opacity:1;fill-rule:nonzero;stroke:none"
                 id="path60" /></g></g></g><g
           id="g62"
           style="fill:#f9f9f9"><g
             id="g64"
             clip-path="url(#clipPath68-1)"
             style="fill:#f9f9f9"><g
               id="g70"
               clip-path="url(#clipPath74-5)"
               style="fill:#f9f9f9"><path
                 d="M 4382.57,1450.13 H 7390.16 V 2499.22 H 4382.57 Z"
                 style="fill:#f9f9f9;fill-opacity:1;fill-rule:nonzero;stroke:none"
                 id="path76" /></g></g></g></g></g><text
       xml:space="preserve"
       style="font-style:normal;font-variant:normal;font-weight:normal;font-stretch:normal;font-size:90.5168px;line-height:0.85;font-family:sans-serif;-inkscape-font-specification:sans-serif;stroke-width:0.848594"
       x="2603.2585"
       y="-815.38708"
       id="text915"
       transform="scale(0.95556809,-1.0464979)"
       inkscape:export-xdpi="71.999992"
       inkscape:export-ydpi="71.999992"><tspan
         sodipodi:role="line"
         id="tspan913"
         x="2603.2585"
         y="-815.38708"
         style="font-style:normal;font-variant:normal;font-weight:bold;font-stretch:normal;font-size:90.5168px;font-family:Calibri;-inkscape-font-specification:'Calibri Bold';text-align:center;text-anchor:middle;stroke-width:0.848594"
         rotate="0 0 0 0">zee<tspan
   style="font-style:normal;font-variant:normal;font-weight:bold;font-stretch:normal;font-family:Calibri;-inkscape-font-specification:'Calibri Bold';fill:#ff5e0e;fill-opacity:1;stroke-width:0.848594"
   id="tspan949"
   rotate="0 0">q</tspan></tspan></text></g></svg>
